HIERARCHY
ROOT Hips
{
    OFFSET 0.000000 0.000000 0.000000
    CHANNELS 6 Xposition Yposition Zposition Zrotation Xrotation Yrotation
    JOINT Spine
    {
        OFFSET -0.000000 7.236184 0.000000
        CHANNELS 3 Zrotation Xrotation Yrotation
        JOINT Spine1
        {
            OFFSET -0.000000 20.420147 0.000000
            CHANNELS 3 Zrotation Xrotation Yrotation
            JOINT Neck
            {
                OFFSET -0.000000 20.336288 1.848754
                CHANNELS 3 Zrotation Xrotation Yrotation
                JOINT Head
                {
                    OFFSET -0.000000 12.354461 -1.764923
                    CHANNELS 3 Zrotation Xrotation Yrotation
                    End Site
                    {
                        OFFSET -0.000000 22.061537 0.000000
                    }
                }
            }
            JOINT LeftShoulder
            {
                OFFSET 3.573296 18.396038 -0.314103
                CHANNELS 3 Zrotation Xrotation Yrotation
                JOINT LeftArm
                {
                    OFFSET 10.880760 0.000000 0.000000
                    CHANNELS 3 Zrotation Xrotation Yrotation
                    JOINT LeftForeArm
                    {
                        OFFSET 27.185530 0.000000 0.000000
                        CHANNELS 3 Zrotation Xrotation Yrotation
                        JOINT LeftHand
                        {
                            OFFSET 27.825975 0.000000 0.000000
                            CHANNELS 3 Zrotation Xrotation Yrotation
                            End Site
                            {
                                OFFSET 13.236923 0.000000 0.000000
                            }
                        }
                    }
                }
            }
            JOINT RightShoulder
            {
                OFFSET -3.474926 18.396038 -0.314103
                CHANNELS 3 Zrotation Xrotation Yrotation
                JOINT RightArm
                {
                    OFFSET -10.880760 0.000000 0.000000
                    CHANNELS 3 Zrotation Xrotation Yrotation
                    JOINT RightForeArm
                    {
                        OFFSET -27.185530 0.000000 0.000000
                        CHANNELS 3 Zrotation Xrotation Yrotation
                        JOINT RightHand
                        {
                            OFFSET -27.825975 0.000000 0.000000
                            CHANNELS 3 Zrotation Xrotation Yrotation
                            End Site
                            {
                                OFFSET -13.236923 0.000000 0.000000
                            }
                        }
                    }
                }
            }
        }
    }
    JOINT LeftUpLeg
    {
        OFFSET 8.824615 0.000000 0.000000
        CHANNELS 3 Zrotation Xrotation Yrotation
        JOINT LeftLeg
        {
            OFFSET -0.000000 -35.111282 0.000000
            CHANNELS 3 Zrotation Xrotation Yrotation
            JOINT LeftFoot
            {
                OFFSET -0.000000 -42.324711 0.000000
                CHANNELS 3 Zrotation Xrotation Yrotation
                JOINT LeftToeBase
                {
                    OFFSET -0.000000 -5.735999 13.236923
                    CHANNELS 3 Zrotation Xrotation Yrotation
                    End Site
                    {
                        OFFSET -0.000000 0.000000 3.529846
                    }
                }
            }
        }
    }
    JOINT RightUpLeg
    {
        OFFSET -8.824615 0.000000 0.000000
        CHANNELS 3 Zrotation Xrotation Yrotation
        JOINT RightLeg
        {
            OFFSET -0.000000 -35.111282 0.000000
            CHANNELS 3 Zrotation Xrotation Yrotation
            JOINT RightFoot
            {
                OFFSET -0.000000 -42.324711 0.000000
                CHANNELS 3 Zrotation Xrotation Yrotation
                JOINT RightToeBase
                {
                    OFFSET -0.000000 -5.735999 13.236923
                    CHANNELS 3 Zrotation Xrotation Yrotation
                    End Site
                    {
                        OFFSET -0.000000 0.000000 3.529846
                    }
                }
            }
        }
    }
}
MOTION
Frames:    5
Frame Time:    0.008333
-5.174145    83.156181    100.810310    -0.397954    -8.464621    -174.311737    -2.949896    -12.771668    0.224050    1.982026    7.371325    0.426592    1.660902    4.513063    -1.850471    6.600015    -12.473583    -0.464923    -1.677483    16.669111    -1.305112    -46.949913    46.341755    -36.065033    11.995727    -7.738493    -45.363686    16.157511    -2.231034    3.489556    7.521432    18.246408    -5.105481    36.689083    44.972801    37.759449    -19.230120    -7.266424    50.853916    -14.234399    2.316800    -2.837340    2.441625    -14.682055    -3.666928    1.392398    18.357298    -1.539129    -5.812418    -9.853306    -10.038550    0.103111    0.082191    -0.114279    -4.945113    -8.171913    0.620572    1.658944    10.480360    5.195789    -0.663425    -7.294744    -12.527214    -2.230809    -1.325561    2.417182    
-5.167397    83.160934    100.805450    -0.389077    -8.485107    -174.315277    -2.951469    -12.750983    0.224061    1.996347    7.350191    0.425632    1.652493    4.480256    -1.853440    6.590988    -12.482132    -0.469349    -1.659306    16.663906    -1.328306    -46.859341    46.335442    -36.086929    11.897511    -7.939990    -45.767422    16.208319    -2.430777    3.446933    7.514215    18.260019    -5.083989    36.788857    44.905701    37.728004    -18.968990    -7.706349    51.168385    -14.406502    1.802713    -2.746345    2.462292    -14.682560    -3.624071    1.393826    18.322487    -1.551972    -5.841785    -9.836896    -10.061304    0.109973    0.078721    -0.121884    -4.940869    -8.160662    0.587714    1.669537    10.420685    5.248314    -0.708730    -7.264151    -12.552098    -2.239523    -1.308097    2.426563    
-5.160855    83.165680    100.800537    -0.380433    -8.505340    -174.318863    -2.952756    -12.730382    0.224015    2.010095    7.328914    0.424807    1.644353    4.448060    -1.856101    6.581503    -12.490510    -0.473611    -1.640660    16.657715    -1.351727    -46.769363    46.331776    -36.109055    11.801146    -8.139632    -46.168762    16.258442    -2.628747    3.405492    7.506378    18.272890    -5.062431    36.885098    44.840958    37.699715    -18.711811    -8.139406    51.484810    -14.571370    1.296215    -2.662521    2.482719    -14.682475    -3.581101    1.395054    18.287210    -1.564757    -5.870993    -9.820341    -10.084105    0.116937    0.075509    -0.129603    -4.936811    -8.149099    0.554827    1.679908    10.361136    5.301067    -0.752918    -7.233722    -12.576917    -2.248049    -1.290917    2.435741    
-5.154582    83.170509    100.795532    -0.371921    -8.525484    -174.322464    -2.953346    -12.709618    0.224052    2.023001    7.306960    0.423918    1.636535    4.416870    -1.858212    6.571110    -12.499166    -0.477517    -1.621362    16.649511    -1.376279    -46.679710    46.331989    -36.131264    11.707933    -8.339010    -46.570976    16.308231    -2.825542    3.365518    7.497963    18.284636    -5.040248    36.976120    44.778816    37.676441    -18.463308    -8.565808    51.805771    -14.728827    0.800208    -2.585417    2.503150    -14.681445    -3.537217    1.396079    18.250624    -1.577949    -5.900599    -9.803341    -10.107244    0.124179    0.072258    -0.137630    -4.932793    -8.136927    0.521569    1.689697    10.301210    5.355237    -0.795219    -7.203539    -12.602354    -2.256295    -1.274379    2.444620    
-5.148680    83.175430    100.790344    -0.363581    -8.545350    -174.326126    -2.952904    -12.688523    0.224208    2.034682    7.284031    0.422993    1.629163    4.386806    -1.859525    6.559482    -12.507605    -0.480972    -1.600989    16.638723    -1.402291    -46.590229    46.337559    -36.154125    11.619633    -8.538230    -46.973812    16.356707    -3.020404    3.327472    7.488553    18.294771    -5.017403    37.059219    44.720821    37.660786    -18.236494    -8.977895    52.130249    -14.877942    0.313462    -2.517941    2.523682    -14.678892    -3.491930    1.396732    18.212194    -1.591911    -5.930577    -9.785755    -10.130685    0.131803    0.068872    -0.146081    -4.928782    -8.123726    0.487804    1.698709    10.240627    5.411082    -0.835100    -7.173564    -12.628345    -2.264155    -1.258584    2.453081    
